<svg width="14" height="15" viewBox="0 0 14 15" fill="none" xmlns="http://www.w3.org/2000/svg">
<path d="M6.08332 12.2501C7.3406 12.2498 8.56164 11.8289 9.55203 11.0544L12.6659 14.1682L13.6674 13.1667L10.5536 10.0528C11.3285 9.06234 11.7497 7.84102 11.75 6.58341C11.75 3.45896 9.20778 0.916748 6.08332 0.916748C2.95886 0.916748 0.416656 3.45896 0.416656 6.58341C0.416656 9.70787 2.95886 12.2501 6.08332 12.2501ZM6.08332 2.33341C8.4272 2.33341 10.3333 4.23954 10.3333 6.58341C10.3333 8.92729 8.4272 10.8334 6.08332 10.8334C3.73945 10.8334 1.83332 8.92729 1.83332 6.58341C1.83332 4.23954 3.73945 2.33341 6.08332 2.33341Z" fill="#2B2C34"/>
</svg>
